<?xml version="1.0" encoding="utf-8"?>
<!-- Generated by IcoMoon.io -->
<svg version="1.1" xmlns="http://www.w3.org/2000/svg" xmlns:xlink="http://www.w3.org/1999/xlink" width="752" height="80" viewBox="0 0 752 80">
<svg id="icon-confirm-purchase" width="32" height="32" viewBox="0 0 32 32" x="0" y="0" style="fill:#fff">
<path d="M21.66 30.13l-0.022-0.425c-0.181 0.019-0.361 0.038-0.539 0.038-1.185 0-2.337-0.432-3.235-1.227l-5.306-4.705c-2.014-1.786-2.199-4.866-0.412-6.88s4.868-2.198 6.88-0.415l1.002 0.889 0.871-1.388-0.329-6.082c-0.052-0.941-0.828-1.678-1.772-1.678h-1.675v-2.674c0-3.079-2.505-5.583-5.583-5.583-3.077 0-5.581 2.504-5.581 5.582v2.675h-1.684c-0.942 0-1.72 0.736-1.771 1.678l-1.091 20.195c-0.026 0.487 0.149 0.963 0.484 1.316 0.334 0.353 0.8 0.554 1.287 0.554h16.706c0.488 0 0.953-0.201 1.288-0.554 0.334-0.353 0.51-0.829 0.483-1.316zM9.207 5.582c0-1.286 1.045-2.332 2.331-2.332s2.333 1.047 2.333 2.333v2.674h-4.665v-2.675z"></path>
<path d="M29.576 11.496c-1.013-0.635-2.351-0.33-2.987 0.683l-5.879 9.372-3.393-3.008c-0.895-0.793-2.264-0.711-3.058 0.184s-0.712 2.264 0.184 3.058l5.306 4.704c0.399 0.353 0.911 0.546 1.437 0.546 0.102 0 0.205-0.007 0.307-0.022 0.631-0.090 1.189-0.454 1.527-0.993l7.239-11.537c0.637-1.013 0.33-2.35-0.683-2.986z"></path>
</svg>
<svg id="icon-soccer-field" width="32" height="32" viewBox="0 0 32 32" x="48" y="0">
<path d="M27.5 0h-23c-0.276 0-0.5 0.224-0.5 0.5v31c0 0.276 0.224 0.5 0.5 0.5h23c0.276 0 0.5-0.224 0.5-0.5v-31c0-0.276-0.224-0.5-0.5-0.5zM17.25 4.958c0 0.643-0.561 1.167-1.25 1.167s-1.25-0.523-1.25-1.167c0-0.113 0.018-0.226 0.052-0.333h2.395c0.035 0.108 0.052 0.221 0.052 0.333zM12.72 3.515v-2.5h6.561v2.5h-6.561zM11.72 1v3.015c0 0.276 0.223 0.5 0.5 0.5h1.583c-0.031 0.146-0.053 0.294-0.053 0.444 0 1.194 1.009 2.167 2.25 2.167s2.25-0.971 2.25-2.167c0-0.15-0.021-0.298-0.052-0.444h1.584c0.276 0 0.5-0.224 0.5-0.5v-3.015h6.719v14.122h-6.026c-0.252-2.523-2.387-4.5-4.974-4.5s-4.723 1.977-4.974 4.5h-6.026v-14.122h6.719zM12.034 15.122c0.248-1.97 1.929-3.5 3.966-3.5s3.718 1.53 3.965 3.5h-7.931zM19.965 16.122c-0.247 1.97-1.93 3.5-3.966 3.5s-3.718-1.53-3.966-3.5h7.931zM14.75 26.916c0-0.643 0.56-1.166 1.25-1.166s1.25 0.523 1.25 1.166c0 0.113-0.017 0.226-0.052 0.334h-2.396c-0.035-0.108-0.053-0.221-0.053-0.334zM19.281 28.36v2.5h-6.561v-2.5h6.561zM20.281 31v-3.14c0-0.276-0.224-0.5-0.5-0.5h-1.584c0.032-0.146 0.052-0.294 0.052-0.444 0-1.195-1.009-2.166-2.25-2.166s-2.25 0.971-2.25 2.166c0 0.15 0.021 0.298 0.053 0.444h-1.583c-0.277 0-0.5 0.224-0.5 0.5v3.14h-6.72v-14.878h6.026c0.252 2.523 2.386 4.5 4.974 4.5s4.723-1.977 4.974-4.5h6.026v14.878h-6.719z"></path>
</svg>
<svg id="icon-filter" width="32" height="32" viewBox="0 0 32 32" x="96" y="0" style="fill:#ff5c33">
<path d="M30.286 1.721h-1.115c-0.021 0-0.048 0-0.069 0.007-0.021 0-0.048-0.007-0.069-0.007h-28.518c-0.186 0-0.365 0.103-0.454 0.268s-0.083 0.365 0.021 0.523l11.307 17.59v9.662c0 0.282 0.234 0.516 0.516 0.516h5.739c0.282 0 0.516-0.234 0.516-0.516v-9.655l8.946-13.915h3.179c0.977 0 1.714-0.736 1.714-1.72v-1.122c0-0.895-0.771-1.631-1.714-1.631zM17.211 19.675v0c-0.055 0.083-0.083 0.179-0.083 0.282v9.29h-4.707v-9.29c0-0.096-0.028-0.193-0.083-0.282l-10.88-16.922h26.625l-10.873 16.922zM30.968 4.473c0 0.406-0.282 0.688-0.681 0.688h-2.519l1.548-2.409h0.97c0.378 0 0.681 0.268 0.681 0.606v1.115z"></path>
<path d="M6.607 5.918c-0.158-0.241-0.475-0.31-0.716-0.158-0.241 0.158-0.31 0.475-0.158 0.716l7.969 12.518v6.73c0 0.282 0.234 0.516 0.516 0.516v0c0.289 0 0.516-0.234 0.523-0.516v-6.882c0-0.096-0.028-0.193-0.083-0.275l-8.052-12.648z"></path>
</svg>
<svg id="icon-info" width="32" height="32" viewBox="0 0 32 32" x="144" y="0" style="fill:#ff5c33">
<path d="M16 0c-8.822 0-16 7.177-16 16s7.178 16 16 16 16-7.177 16-16-7.178-16-16-16zM16 30.031c-7.737 0-14.031-6.294-14.031-14.031s6.294-14.031 14.031-14.031 14.031 6.294 14.031 14.031-6.294 14.031-14.031 14.031z"></path>
<path d="M17.902 9.62c0 0.909-0.737 1.647-1.647 1.647s-1.647-0.737-1.647-1.647c0-0.909 0.737-1.647 1.647-1.647s1.647 0.737 1.647 1.647z"></path>
<path d="M15.821 13.953c-0.543 0-0.985 0.441-0.985 0.985v8.369c0 0.544 0.441 0.985 0.985 0.985s0.985-0.441 0.985-0.985v-8.369c0-0.544-0.441-0.985-0.985-0.985z"></path>
</svg>
<svg id="icon-back" width="32" height="32" viewBox="0 0 32 32" x="192" y="0" style="fill:#ff5c33">
<path d="M9.736 15.999l14.452-14.452c0.355-0.355 0.355-0.925 0-1.281s-0.925-0.355-1.281 0l-15.095 15.095c-0.355 0.355-0.355 0.925 0 1.281l15.095 15.089c0.174 0.174 0.409 0.268 0.637 0.268s0.463-0.087 0.637-0.268c0.355-0.355 0.355-0.925 0-1.281l-14.445-14.452z"></path>
</svg>
<svg id="icon-cancel" width="32" height="32" viewBox="0 0 32 32" x="240" y="0" style="fill:#fff">
<path d="M14.47 15.893l-14.164 14.164c-0.394 0.393-0.394 1.031 0 1.425 0.197 0.197 0.455 0.295 0.712 0.295s0.516-0.098 0.712-0.295l14.271-14.27 14.271 14.27c0.197 0.197 0.454 0.295 0.712 0.295s0.515-0.098 0.712-0.295c0.394-0.393 0.394-1.031 0-1.425l-14.163-14.164 14.173-14.174c0.394-0.393 0.394-1.031 0-1.425s-1.031-0.393-1.424 0l-14.279 14.28-14.281-14.28c-0.393-0.393-1.030-0.393-1.424 0s-0.394 1.031 0 1.425l14.174 14.174z"></path>
</svg>
<svg id="icon-google-plus" width="32" height="32" viewBox="0 0 32 32" x="288" y="0" style="fill:#dd4b39">
<path d="M18.413 20.375c-0.34-0.455-0.715-0.879-1.125-1.269s-0.821-0.747-1.231-1.067c-0.41-0.32-0.785-0.628-1.125-0.923s-0.615-0.602-0.827-0.923-0.317-0.647-0.317-0.981c0-0.462 0.148-0.894 0.442-1.298s0.654-0.795 1.077-1.173c0.423-0.378 0.846-0.792 1.269-1.24s0.782-1.042 1.077-1.779c0.295-0.737 0.442-1.58 0.442-2.529 0-1.128-0.25-2.212-0.75-3.25s-1.205-1.846-2.115-2.423h2.596l2.596-1.519h-8.403c-1.192 0-2.391 0.128-3.596 0.385-1.782 0.397-3.282 1.305-4.5 2.721s-1.827 3.022-1.827 4.817c0 1.897 0.683 3.474 2.048 4.731s3.003 1.884 4.913 1.884c0.385 0 0.833-0.032 1.346-0.096-0.026 0.102-0.070 0.24-0.134 0.413s-0.116 0.311-0.154 0.414c-0.038 0.102-0.071 0.227-0.096 0.375s-0.038 0.298-0.038 0.452c0 0.846 0.41 1.801 1.231 2.865-0.974 0.026-1.936 0.112-2.884 0.26s-1.942 0.378-2.981 0.692c-1.038 0.314-1.968 0.769-2.788 1.365s-1.436 1.304-1.846 2.125c-0.474 0.949-0.712 1.814-0.712 2.596 0 0.859 0.192 1.638 0.577 2.337s0.878 1.269 1.481 1.711c0.603 0.443 1.298 0.814 2.087 1.116s1.57 0.516 2.346 0.644c0.776 0.128 1.542 0.192 2.298 0.192 3.436 0 6.128-0.84 8.077-2.519 1.795-1.564 2.692-3.372 2.692-5.423 0-0.731-0.106-1.413-0.317-2.048s-0.487-1.18-0.827-1.635zM11 13.385c-0.654 0-1.276-0.167-1.865-0.5s-1.090-0.766-1.5-1.298c-0.41-0.532-0.769-1.131-1.077-1.798s-0.535-1.333-0.683-2c-0.147-0.666-0.221-1.301-0.221-1.904 0-1.231 0.327-2.288 0.981-3.173s1.577-1.327 2.769-1.327c0.846 0 1.612 0.263 2.298 0.788s1.224 1.192 1.615 2c0.391 0.808 0.692 1.644 0.904 2.509s0.317 1.683 0.317 2.452c0 1.282-0.279 2.311-0.836 3.087s-1.458 1.163-2.702 1.163zM16.317 27.826c-0.352 0.603-0.83 1.074-1.432 1.413s-1.247 0.59-1.933 0.75c-0.686 0.161-1.407 0.241-2.163 0.241-0.821 0-1.635-0.096-2.442-0.289s-1.58-0.484-2.317-0.875c-0.737-0.391-1.333-0.929-1.788-1.615s-0.683-1.465-0.683-2.337c0-0.769 0.173-1.455 0.519-2.058s0.789-1.083 1.327-1.442c0.538-0.359 1.167-0.654 1.885-0.884s1.41-0.391 2.077-0.481c0.666-0.090 1.346-0.134 2.038-0.134 0.423 0 0.744 0.013 0.962 0.038 0.077 0.052 0.272 0.186 0.587 0.404s0.526 0.366 0.635 0.443c0.109 0.077 0.308 0.224 0.596 0.442s0.493 0.381 0.615 0.49c0.121 0.109 0.298 0.272 0.529 0.49s0.401 0.407 0.51 0.567c0.109 0.16 0.244 0.356 0.404 0.586s0.272 0.452 0.337 0.664c0.064 0.212 0.125 0.442 0.182 0.692s0.086 0.51 0.086 0.779c0 0.807-0.176 1.513-0.529 2.115z"></path>
<path d="M27.077 4.923v-4.923h-2.462v4.923h-4.923v2.462h4.923v4.923h2.462v-4.923h4.923v-2.462z"></path>
</svg>
<svg id="icon-twitter-1" width="32" height="32" viewBox="0 0 32 32" x="336" y="0">
<path fill="#76a9ea" d="M31.491 5.787c-0.711 0.315-1.449 0.564-2.206 0.744 0.834-0.793 1.462-1.785 1.816-2.892v0c0.101-0.316-0.242-0.589-0.528-0.42v0c-1.054 0.625-2.188 1.094-3.373 1.394-0.069 0.017-0.14 0.026-0.211 0.026-0.216 0-0.426-0.080-0.591-0.226-1.26-1.111-2.882-1.723-4.565-1.723-0.728 0-1.464 0.114-2.186 0.337-2.237 0.694-3.963 2.539-4.505 4.816-0.203 0.854-0.258 1.709-0.164 2.54 0.011 0.096-0.034 0.162-0.062 0.194-0.049 0.055-0.118 0.086-0.19 0.086-0.008 0-0.016-0-0.024-0.001-4.897-0.455-9.312-2.814-12.433-6.643v0c-0.159-0.195-0.464-0.171-0.591 0.046v0c-0.611 1.049-0.934 2.248-0.934 3.468 0 1.87 0.751 3.633 2.057 4.918-0.549-0.13-1.080-0.335-1.574-0.609v0c-0.239-0.133-0.532 0.038-0.536 0.311v0c-0.034 2.778 1.593 5.251 4.029 6.364-0.049 0.001-0.098 0.002-0.147 0.002-0.386 0-0.777-0.037-1.162-0.111v0c-0.269-0.051-0.495 0.204-0.411 0.464v0c0.791 2.469 2.917 4.29 5.462 4.703-2.112 1.418-4.571 2.165-7.13 2.165l-0.798-0c-0.246 0-0.454 0.16-0.516 0.398-0.062 0.235 0.052 0.482 0.262 0.604 2.884 1.678 6.174 2.566 9.515 2.566 2.925 0 5.66-0.58 8.131-1.725 2.265-1.049 4.267-2.549 5.949-4.458 1.567-1.778 2.793-3.831 3.643-6.101 0.81-2.164 1.238-4.473 1.238-6.678v-0.105c-0-0.354 0.16-0.687 0.439-0.914 1.060-0.861 1.983-1.874 2.743-3.011v0c0.201-0.3-0.116-0.677-0.446-0.53v0z"></path>
</svg>
<svg id="icon-facebook-1" width="32" height="32" viewBox="0 0 32 32" x="384" y="0">
<path fill="#385c8e" d="M8.434 17.043h3.508v14.441c0 0.285 0.231 0.516 0.516 0.516h5.947c0.285 0 0.516-0.231 0.516-0.516v-14.373h4.032c0.262 0 0.483-0.197 0.513-0.457l0.612-5.316c0.017-0.146-0.029-0.293-0.127-0.402s-0.238-0.173-0.385-0.173h-4.645v-3.333c0-1.005 0.541-1.514 1.608-1.514 0.152 0 3.037 0 3.037 0 0.285 0 0.516-0.231 0.516-0.516v-4.88c0-0.285-0.231-0.516-0.516-0.516h-4.185c-0.029-0.001-0.095-0.004-0.192-0.004-0.726 0-3.25 0.143-5.244 1.977-2.209 2.033-1.902 4.467-1.829 4.889v3.897h-3.682c-0.285 0-0.516 0.231-0.516 0.516v5.248c0 0.285 0.231 0.516 0.516 0.516z"></path>
</svg>
<svg id="icon-disabled" width="32" height="32" viewBox="0 0 32 32" x="432" y="0" style="fill:#ff5c33">
<path d="M28.44 27.993c-1.259-3.325-2.562-6.663-4.147-9.848-0.466-0.937-1.361-1.133-2.126-0.882-0.229-0.001-0.46-0.001-0.689-0.003 1.057-0.371 1.767-1.75 0.706-2.732-2.008-1.858-3.848-3.869-5.526-6.028-0.077-0.1-0.17-0.18-0.269-0.247-0.303-0.276-0.679-0.491-1.135-0.617-1.384-0.38-3.237 0.465-3.498 1.995-0.476 2.796-0.851 5.608-1.106 8.434-0.009 0.107-0.009 0.211-0.004 0.317-0.166 1.099 0.417 2.431 1.738 2.556 3.042 0.288 6.119 0.064 9.178 0.021 1.343 2.841 2.489 5.786 3.601 8.721 0.844 2.223 4.108 0.506 3.277-1.686zM16.439 17.171c0.109-1.099 0.241-2.195 0.39-3.289 0.952 1.046 1.945 2.051 2.987 3.013 0.181 0.167 0.372 0.282 0.566 0.357-1.314-0.012-2.63-0.033-3.943-0.081z"></path>
<path d="M18.743 3.267c0 1.804-1.463 3.267-3.267 3.267s-3.267-1.463-3.267-3.267c0-1.804 1.463-3.267 3.267-3.267s3.267 1.463 3.267 3.267z"></path>
<path d="M23.504 26.705c-0.313-0.198-0.726-0.102-0.924 0.211-1.473 2.345-4.004 3.744-6.769 3.744-4.405 0-7.99-3.584-7.99-7.989 0-2.133 0.831-4.14 2.34-5.65 0.262-0.262 0.262-0.686 0-0.947-0.185-0.185-0.449-0.236-0.681-0.161l-0.278-4.080c-0.018-0.254-0.177-0.476-0.411-0.573l-4.44-1.842c-0.342-0.141-0.733 0.020-0.875 0.362s0.020 0.734 0.362 0.876l4.056 1.683 0.336 4.91c-1.13 1.573-1.748 3.45-1.748 5.422 0 5.144 4.186 9.329 9.33 9.329 3.229 0 6.183-1.634 7.903-4.373 0.198-0.311 0.102-0.725-0.211-0.923z"></path>
</svg>
<svg id="icon-multiple-users" width="32" height="32" viewBox="0 0 32 32" x="480" y="0"  style="fill:#ff5c33">
<path d="M19.311 7.157c1.48 0.928 2.517 2.498 2.706 4.32 0.603 0.282 1.273 0.444 1.983 0.444 2.592 0 4.693-2.101 4.693-4.693s-2.101-4.693-4.693-4.693c-2.567 0.001-4.65 2.064-4.689 4.622zM16.236 16.766c2.592 0 4.693-2.101 4.693-4.693s-2.101-4.693-4.693-4.693c-2.592 0-4.694 2.101-4.694 4.693s2.102 4.693 4.694 4.693zM18.227 17.086h-3.982c-3.313 0-6.009 2.696-6.009 6.009v4.87l0.012 0.076 0.335 0.105c3.162 0.988 5.909 1.317 8.17 1.317 4.416 0 6.976-1.259 7.134-1.339l0.314-0.159h0.034v-4.871c0.001-3.313-2.694-6.009-6.008-6.009zM25.991 12.241h-3.952c-0.043 1.581-0.718 3.005-1.785 4.029 2.945 0.876 5.1 3.607 5.1 6.833v1.501c3.902-0.143 6.15-1.249 6.298-1.323l0.314-0.159h0.034v-4.872c0-3.313-2.696-6.009-6.009-6.009zM8.001 11.922c0.918 0 1.772-0.268 2.496-0.724 0.23-1.5 1.034-2.811 2.183-3.704 0.005-0.088 0.013-0.175 0.013-0.264 0-2.592-2.101-4.693-4.692-4.693-2.593 0-4.693 2.101-4.693 4.693 0 2.591 2.101 4.692 4.693 4.692zM12.216 16.27c-1.062-1.019-1.735-2.435-1.784-4.006-0.147-0.011-0.292-0.022-0.441-0.022h-3.982c-3.313 0-6.009 2.696-6.009 6.009v4.871l0.012 0.075 0.335 0.106c2.537 0.792 4.801 1.157 6.767 1.272v-1.471c0.001-3.226 2.155-5.956 5.101-6.833z"></path>
</svg>
<svg id="icon-standing-up" width="32" height="32" viewBox="0 0 32 32" x="528" y="0"  style="fill:#ff5c33">
<path d="M18.642 2.693c0 1.488-1.206 2.693-2.694 2.693s-2.694-1.206-2.694-2.693c0-1.488 1.206-2.693 2.694-2.693s2.694 1.206 2.694 2.693z"></path>
<path d="M16.887 6.671c-0.671-0.136-1.401-0.13-2.060 0.025-4.478 0.525-5.932 5.708-5.521 9.66 0.178 1.709 2.872 1.727 2.692 0-0.149-1.44-0.085-3.614 0.68-5.159 0 1.878 0 3.755 0 5.633 0 0.066 0.007 0.128 0.010 0.192-0.002 0.030-0.009 0.056-0.009 0.087 0 4.47-0.008 8.938-0.192 13.404-0.082 1.985 2.997 1.978 3.078 0 0.145-3.5 0.181-7.002 0.189-10.505 0.146 0.010 0.292 0.010 0.437 0.001 0.009 3.503 0.044 7.005 0.188 10.504 0.082 1.978 3.16 1.985 3.078 0-0.185-4.466-0.191-8.934-0.191-13.404 0-0.139-0.019-0.265-0.047-0.386-0.004-1.941-0.078-3.883-0.056-5.822 0.917 1.552 1 3.919 0.841 5.453-0.18 1.725 2.514 1.708 2.692 0 0.42-4.034-1.104-9.352-5.808-9.684z"></path>
</svg>
<svg id="icon-ticket" width="32" height="32" viewBox="0 0 32 32" x="576" y="0"  style="fill:#ff5c33">
<path d="M31.298 10.616l-2.393-2.374c-0.709 0.709-1.57 1.063-2.583 1.063s-1.874-0.355-2.582-1.063c-0.709-0.709-1.063-1.57-1.063-2.583s0.355-1.874 1.063-2.583l-2.374-2.374c-0.469-0.468-1.042-0.703-1.719-0.703s-1.25 0.234-1.719 0.703l-17.225 17.206c-0.469 0.469-0.703 1.042-0.703 1.719s0.234 1.25 0.703 1.719l2.374 2.393c0.709-0.709 1.57-1.063 2.583-1.063s1.874 0.354 2.583 1.063c0.709 0.709 1.063 1.57 1.063 2.583s-0.354 1.873-1.063 2.583l2.393 2.393c0.469 0.468 1.042 0.703 1.719 0.703s1.25-0.234 1.719-0.703l17.225-17.244c0.468-0.468 0.702-1.041 0.702-1.719s-0.234-1.25-0.703-1.719zM26.151 14.414l-11.736 11.736c-0.228 0.228-0.512 0.342-0.855 0.342s-0.627-0.114-0.854-0.342l-6.875-6.874c-0.241-0.241-0.361-0.526-0.361-0.855s0.12-0.614 0.361-0.855l11.736-11.736c0.228-0.228 0.513-0.342 0.855-0.342s0.626 0.114 0.855 0.342l6.875 6.875c0.241 0.241 0.361 0.526 0.361 0.855s-0.12 0.614-0.361 0.855z"></path>
<path d="M18.422 7.559l6.001 6.001-10.863 10.863-6.001-6.001 10.862-10.863z"></path>
</svg>
<svg id="icon-time" width="32" height="32" viewBox="0 0 32 32" x="624" y="0" style="fill:#ff5c33">
<path d="M16 0c-8.822 0-16 7.178-16 16s7.178 16 16 16 16-7.178 16-16-7.178-16-16-16zM16 30.933c-8.234 0-14.933-6.699-14.933-14.933s6.699-14.933 14.933-14.933 14.933 6.699 14.933 14.933-6.699 14.933-14.933 14.933z"></path>
<path d="M16 3.2c-0.294 0-0.533 0.238-0.533 0.533v12.267h-8c-0.294 0-0.533 0.238-0.533 0.533s0.239 0.533 0.533 0.533h8.533c0.294 0 0.533-0.238 0.533-0.533v-12.8c0-0.295-0.239-0.533-0.533-0.533z"></path>
</svg>
<svg id="icon-percent" width="32" height="32" viewBox="0 0 32 32" x="672" y="0">
<path d="M0.247 30.563l30.316-30.316 1.191 1.191-30.316 30.316-1.191-1.191z"></path>
<path d="M5.053 10.105c2.787 0 5.053-2.266 5.053-5.053s-2.266-5.053-5.053-5.053-5.053 2.266-5.053 5.053 2.266 5.053 5.053 5.053zM5.053 1.684c1.858 0 3.368 1.511 3.368 3.368s-1.511 3.368-3.368 3.368-3.368-1.511-3.368-3.368 1.511-3.368 3.368-3.368z"></path>
<path d="M26.947 21.895c-2.787 0-5.053 2.266-5.053 5.053s2.266 5.053 5.053 5.053 5.053-2.266 5.053-5.053-2.266-5.053-5.053-5.053zM26.947 30.316c-1.858 0-3.368-1.511-3.368-3.368s1.511-3.368 3.368-3.368 3.368 1.511 3.368 3.368-1.511 3.368-3.368 3.368z"></path>
</svg>
<svg id="icon-fire" width="32" height="32" viewBox="0 0 32 32" x="720" y="0" style="fill:#ff8566">
<path d="M27.932 18.736c-0.367-4.772-2.589-7.763-4.549-10.402-1.815-2.443-3.383-4.553-3.383-7.665 0-0.25-0.14-0.478-0.362-0.593s-0.49-0.096-0.693 0.051c-2.944 2.107-5.4 5.657-6.258 9.045-0.596 2.359-0.675 5.010-0.686 6.761-2.719-0.581-3.335-4.647-3.341-4.692-0.031-0.211-0.159-0.395-0.347-0.495-0.189-0.099-0.412-0.106-0.604-0.011-0.143 0.069-3.499 1.775-3.695 8.585-0.014 0.227-0.014 0.454-0.014 0.681 0 6.616 5.383 11.999 12 11.999 0.009 0.001 0.019 0.002 0.027 0 0.003 0 0.005 0 0.008 0 6.6-0.019 11.965-5.395 11.965-11.999 0-0.333-0.068-1.264-0.068-1.264zM16 30.666c-2.206 0-4-1.911-4-4.261 0-0.080-0.001-0.161 0.005-0.26 0.027-0.991 0.215-1.667 0.421-2.117 0.387 0.831 1.078 1.594 2.201 1.594 0.368 0 0.667-0.298 0.667-0.667 0-0.949 0.020-2.044 0.256-3.032 0.21-0.876 0.713-1.808 1.35-2.556 0.283 0.97 0.835 1.755 1.374 2.521 0.771 1.096 1.569 2.23 1.709 4.163 0.008 0.115 0.017 0.23 0.017 0.354-0 2.349-1.794 4.261-4 4.261z"></path>
</svg>
<svg id="icon-facebook-placeholder-for-locate-places-on-maps" width="32" height="32" viewBox="0 0 32 32" x="0" y="48" style="fill:#ff5c33">
<path d="M26.501 7.964c-0.114-0.427-0.345-0.882-0.516-1.28-2.048-4.921-6.522-6.684-10.134-6.684-4.836 0-10.162 3.243-10.873 9.927v1.366c0 0.057 0.020 0.569 0.048 0.825 0.399 3.185 2.912 6.571 4.789 9.756 2.020 3.413 4.115 6.77 6.192 10.126 1.28-2.19 2.556-4.409 3.807-6.542 0.341-0.626 0.737-1.252 1.078-1.849 0.227-0.398 0.662-0.796 0.861-1.166 2.020-3.698 5.27-7.424 5.27-11.093v-1.507c0-0.398-0.493-1.792-0.521-1.877zM15.94 14.82c-1.422 0-2.978-0.711-3.746-2.674-0.114-0.312-0.105-0.939-0.105-0.996v-0.882c0-2.502 2.125-3.64 3.973-3.64 2.276 0 4.036 1.821 4.036 4.096s-1.883 4.096-4.158 4.096z"></path>
</svg>
<svg id="icon-instagram-photo-camera-logo-outline" width="32" height="32" viewBox="0 0 32 32" x="48" y="48" style="stroke:#bfbfbf">
<path d="M3.722 8.667c-0.369 0-0.667-0.298-0.667-0.667v-6c0-0.369 0.298-0.667 0.667-0.667s0.667 0.298 0.667 0.667v6c0 0.369-0.298 0.667-0.667 0.667z"></path>
<path d="M5.972 8.667c-0.369 0-0.667-0.298-0.667-0.667v-6.5c0-0.369 0.298-0.667 0.667-0.667s0.667 0.298 0.667 0.667v6.5c0 0.369-0.298 0.667-0.667 0.667z"></path>
<path d="M8.222 8.667c-0.369 0-0.667-0.298-0.667-0.667v-6.5c0-0.369 0.298-0.667 0.667-0.667s0.667 0.298 0.667 0.667v6.5c0 0.369-0.298 0.667-0.667 0.667z"></path>
<path d="M24.861 32h-16.917c-5.049 0-7.945-2.657-7.945-7.292v-16.625c0-4.835 2.847-8.083 7.083-8.083h18.389c3.139 0 6.527 3.016 6.527 7.889v16.722c0 4.143-3.135 7.389-7.139 7.389zM7.083 1.333c-4.244 0-5.75 3.636-5.75 6.75v16.625c0 4.924 3.595 5.958 6.611 5.958h16.917c3.31 0 5.805-2.603 5.805-6.055v-16.722c0-4.049-2.696-6.556-5.194-6.556h-18.389z"></path>
<path d="M15.999 10.167c-2.823 0-5.111 2.289-5.111 5.112s2.289 5.111 5.111 5.111c2.822 0 5.111-2.288 5.111-5.111s-2.289-5.112-5.111-5.112zM15.999 17.833c-1.411 0-2.556-1.144-2.556-2.555s1.145-2.556 2.556-2.556 2.556 1.145 2.556 2.556-1.145 2.555-2.556 2.555z"></path>
<path d="M15.999 23.389c-4.473 0-8.111-3.639-8.111-8.111s3.639-8.111 8.111-8.111 8.111 3.639 8.111 8.111-3.639 8.111-8.111 8.111zM15.999 8.5c-3.737 0-6.778 3.041-6.778 6.778s3.041 6.778 6.778 6.778c3.737 0 6.778-3.041 6.778-6.778s-3.041-6.778-6.778-6.778z"></path>
<path d="M21.999 9.947h9.333v1.44h-9.333v-1.44z"></path>
<path d="M0.999 9.966h8.833v1.401h-8.833v-1.401z"></path>
<path d="M27.555 6.755c0 0.81-0.657 1.467-1.468 1.467h-2.176c-0.811 0-1.468-0.657-1.468-1.467v-2.177c0-0.81 0.657-1.467 1.468-1.467h2.176c0.811 0 1.468 0.657 1.468 1.467v2.177z"></path>
</svg>
<svg id="icon-facebook" width="32" height="32" viewBox="0 0 32 32" x="96" y="48" style="stroke:#bfbfbf">
<path d="M18.519 32h-6.886v-14.348h-3.793v-6.589h3.793v-3.7c0-3.397 2.125-7.363 8.117-7.363 2.112 0 3.663 0.198 3.728 0.206l0.636 0.083-0.153 6.166-0.701-0.006c-0.001 0-1.576-0.015-3.293-0.015-1.278 0-1.447 0.315-1.447 1.57v3.061h5.64l-0.313 6.589h-5.327v14.346h-0.001zM13.056 30.576h4.038v-14.347h5.392l0.178-3.742h-5.57v-4.485c0-1.481 0.341-2.994 2.871-2.994 1.017 0 1.983 0.005 2.604 0.010l0.086-3.467c-0.629-0.056-1.675-0.128-2.908-0.128-4.935 0-6.693 3.068-6.693 5.939v5.124h-3.793v3.742h3.793v14.347h0.001z" style="stroke:#bfbfbf"></path>
</svg>
<svg id="icon-twitter" width="32" height="32" viewBox="0 0 32 32" x="144" y="48" style="stroke:#bfbfbf">
<path d="M10.825 28.556c-3.104 0-6.178-0.859-8.891-2.484l-1.934-1.158 2.254 0.038c0.073 0.004 0.191 0.010 0.376 0.010 0.858 0 3.591-0.138 6.393-1.719-2.107-0.626-3.847-2.255-4.564-4.387l-0.355-1.056 0.967 0.251c-1.55-1.191-2.564-3.021-2.675-5.061l-0.053-0.977 0.897 0.391c0.163 0.072 0.33 0.135 0.499 0.19-1.273-1.782-2.044-4.536-0.437-7.461l0.442-0.806 0.562 0.728c2.695 3.484 6.691 5.609 11.049 5.901-0.027-0.271-0.045-0.52-0.045-0.597 0-3.234 2.461-6.579 6.579-6.579 1.729 0 3.393 0.687 4.618 1.896 1.643-0.386 3.213-1.344 3.23-1.354l1.424-0.877-0.538 1.584c-0.258 0.758-0.651 1.457-1.155 2.067 0.275-0.090 0.545-0.193 0.823-0.314l1.71-0.836-0.719 1.543c-0.593 1.275-1.583 2.327-2.811 3 0.27 4.221-1.466 8.93-4.588 12.388-2.318 2.568-6.445 5.636-12.947 5.678l-0.11 0.001zM4.488 26.029c2.010 0.868 4.166 1.32 6.336 1.32l0.103-0.001c6.063-0.039 9.905-2.893 12.060-5.28 3.005-3.329 4.634-7.88 4.25-11.878l-0.040-0.424 0.386-0.18c0.612-0.285 1.16-0.681 1.62-1.163-0.515 0.13-1.064 0.227-1.697 0.304l-0.462 0.056-0.36-0.914 0.42-0.323c0.588-0.344 1.1-0.793 1.514-1.318-0.655 0.279-1.429 0.552-2.202 0.696l-0.33 0.062-0.226-0.248c-1.017-1.115-2.463-1.754-3.97-1.754-3.363 0-5.373 2.732-5.373 5.373 0 0.16 0.080 0.887 0.108 1.074l0.274 0.778-0.871-0.019c-4.666-0.101-9.008-2.146-12.056-5.646-1.206 3.166 0.819 5.696 1.786 6.454l1.414 1.109-1.796-0.031c-0.562-0.010-1.113-0.086-1.647-0.229 0.474 2.116 2.147 3.816 4.32 4.283l2.378 0.511-2.342 0.659c-0.408 0.115-0.871 0.172-1.376 0.172-0.236 0-0.462-0.013-0.671-0.032 0.942 1.658 2.696 2.772 4.636 2.867l1.695 0.083-1.367 1.005c-2.343 1.724-4.774 2.387-6.513 2.633z"></path>
</svg>
<svg id="icon-search" width="32" height="32" viewBox="0 0 32 32" x="192" y="48" style="fill:none;stroke:#bfbfbf">
<path d="M31.238 30.977l-8.977-9.336c2.29-2.296 3.708-5.462 3.708-8.954 0-6.996-5.691-12.687-12.687-12.687s-12.687 5.691-12.687 12.687 5.691 12.687 12.687 12.687c3.071 0 5.889-1.098 8.086-2.919l8.999 9.359c0.118 0.124 0.277 0.185 0.436 0.185 0.151 0 0.301-0.056 0.419-0.169 0.24-0.231 0.248-0.614 0.017-0.854zM13.281 24.166c-6.33 0-11.479-5.149-11.479-11.479s5.149-11.479 11.479-11.479 11.479 5.149 11.479 11.479-5.15 11.479-11.479 11.479z"></path>
</svg>
</svg>
